<?xml version="1.0" encoding="UTF-8" standalone="no"?><!DOCTYPE svg PUBLIC "-//W3C//DTD SVG 1.1//EN" "http://www.w3.org/Graphics/SVG/1.1/DTD/svg11.dtd"><svg width="100%" height="100%" viewBox="0 0 948 838" version="1.1" xmlns="http://www.w3.org/2000/svg" xmlns:xlink="http://www.w3.org/1999/xlink" xml:space="preserve" xmlns:serif="http://www.serif.com/" style="fill-rule:evenodd;clip-rule:evenodd;stroke-linejoin:round;stroke-miterlimit:2;"><g id="logo.png"><path d="M885.341,67.866c35.814,35.328 112.97,161.645 12.021,294.15c-77.558,101.802 -191.365,113.378 -246.426,95.989c-92.159,-29.105 -72.19,-111.505 -191.07,-146.77c-36.086,-10.705 -69.148,-2.041 -74.949,-0.522c-47.74,12.51 -116.537,62.987 -73.572,107.132c20.9,21.474 74.383,43.373 134.425,92.594c44.714,36.655 87.435,74.729 150.041,70.713c64.442,-4.134 139.462,-53.877 220.384,7.752c67.988,51.779 57.369,186.44 -79.461,233.208c-22.639,7.738 -148.966,54.575 -242.385,-61.36c-72.689,-90.208 -51.513,-105.222 -131.966,-197.987c-28.275,-32.602 -112.537,-94.384 -184.39,-65.973c-24.965,9.871 -62.304,31.161 -116.893,-1.861c-60.408,-36.542 -96.567,-139.416 -8.241,-227.527c17.526,-17.484 60.64,-44.955 122.972,-44.331c81.221,0.813 158.49,41.789 214.961,26.178c65.527,-18.115 92.408,-89.531 210.231,-193.654c45.763,-40.442 122.933,-88.145 237.602,-24.88c19.697,10.867 43.294,33.821 46.716,37.15Z" style="fill-opacity:1;"/><path d="M292.341,612.866c11.284,11.479 23.783,24.694 34.305,53.571c19.818,54.386 7.778,162.089 -106.837,147.049c-23.747,-3.116 -95.209,-27.627 -112.63,-91.218c-20.045,-73.17 39.647,-151.151 126.57,-139.439c31.481,4.242 54.776,26.407 58.592,30.038Z" style="fill-opacity:1;"/></g></svg>