<?xml version="1.0" encoding="UTF-8" standalone="no"?>
<!DOCTYPE svg PUBLIC "-//W3C//DTD SVG 1.1//EN" "http://www.w3.org/Graphics/SVG/1.1/DTD/svg11.dtd">
<svg width="100%" height="100%" viewBox="0 0 4961 4961" version="1.1" xmlns="http://www.w3.org/2000/svg" xmlns:xlink="http://www.w3.org/1999/xlink" xml:space="preserve" xmlns:serif="http://www.serif.com/" style="fill-rule:evenodd;clip-rule:evenodd;stroke-linejoin:round;stroke-miterlimit:2;">
    <g transform="matrix(1.255856,0,0,1.255856,2480.314961,2480.314961)">
        <g transform="matrix(1,0,0,1,-1975,-1745.833333)">
            <g id="logo.png" transform="matrix(4.166667,0,0,4.166667,0,0)">
                <path d="M885.341,67.866C921.155,103.194 998.311,229.511 897.362,362.016C819.804,463.818 705.997,475.394 650.936,458.005C558.777,428.9 578.746,346.5 459.866,311.235C423.78,300.53 390.718,309.194 384.917,310.713C337.177,323.223 268.38,373.7 311.345,417.845C332.245,439.319 385.728,461.218 445.77,510.439C490.484,547.094 533.205,585.168 595.811,581.152C660.253,577.018 735.273,527.275 816.195,588.904C884.183,640.683 873.564,775.344 736.734,822.112C714.095,829.85 587.768,876.687 494.349,760.752C421.66,670.544 442.836,655.53 362.383,562.765C334.108,530.163 249.846,468.381 177.993,496.792C153.028,506.663 115.689,527.953 61.1,494.931C0.692,458.389 -35.467,355.515 52.859,267.404C70.385,249.92 113.499,222.449 175.831,223.073C257.052,223.886 334.321,264.862 390.792,249.251C456.319,231.136 483.2,159.72 601.023,55.597C646.786,15.155 723.956,-32.548 838.625,30.717C858.322,41.584 881.919,64.538 885.341,67.867L885.341,67.866Z"/>
                <path d="M292.341,612.866C303.625,624.345 316.124,637.56 326.646,666.437C346.464,720.823 334.424,828.526 219.809,813.486C196.062,810.37 124.6,785.859 107.179,722.268C87.134,649.098 146.826,571.117 233.749,582.829C265.23,587.071 288.525,609.236 292.341,612.867L292.341,612.866Z"/>
            </g>
        </g>
    </g>
</svg>
